<svg width="30" height="29" viewBox="0 0 30 29" fill="none" xmlns="http://www.w3.org/2000/svg">
<path d="M19.4241 14.7266C19.4241 15.6229 19.1583 16.4991 18.6603 17.2444C18.1624 17.9897 17.4546 18.5706 16.6264 18.9136C15.7983 19.2566 14.8871 19.3464 14.0079 19.1715C13.1288 18.9967 12.3213 18.565 11.6875 17.9312C11.0537 17.2974 10.622 16.4899 10.4471 15.6107C10.2723 14.7316 10.362 13.8204 10.705 12.9922C11.0481 12.1641 11.6289 11.4563 12.3742 10.9583C13.1195 10.4603 13.9957 10.1945 14.8921 10.1945C16.0929 10.1983 17.2435 10.677 18.0926 11.5261C18.9417 12.3752 19.4204 13.5258 19.4241 14.7266ZM29.0547 8.49503V20.9581C29.0547 23.0616 28.2191 25.0789 26.7318 26.5662C25.2444 28.0536 23.2271 28.8892 21.1236 28.8892H8.66055C6.5571 28.8892 4.53981 28.0536 3.05245 26.5662C1.56508 25.0789 0.729492 23.0616 0.729492 20.9581V8.49503C0.729492 6.39158 1.56508 4.37428 3.05245 2.88692C4.53981 1.39956 6.5571 0.563965 8.66055 0.563965H21.1236C23.2271 0.563965 25.2444 1.39956 26.7318 2.88692C28.2191 4.37428 29.0547 6.39158 29.0547 8.49503ZM21.6902 14.7266C21.6902 13.382 21.2915 12.0677 20.5445 10.9498C19.7975 9.83184 18.7358 8.96052 17.4936 8.44599C16.2514 7.93146 14.8846 7.79684 13.5659 8.05914C12.2472 8.32145 11.0359 8.9689 10.0852 9.91962C9.13443 10.8703 8.48698 12.0816 8.22467 13.4003C7.96237 14.719 8.09699 16.0859 8.61152 17.3281C9.12605 18.5703 9.99737 19.632 11.1153 20.3789C12.2332 21.1259 13.5476 21.5246 14.8921 21.5246C16.6951 21.5246 18.4242 20.8084 19.699 19.5335C20.9739 18.2586 21.6902 16.5295 21.6902 14.7266ZM23.9562 7.36202C23.9562 7.02588 23.8565 6.6973 23.6697 6.41782C23.483 6.13833 23.2176 5.9205 22.907 5.79187C22.5965 5.66324 22.2548 5.62958 21.9251 5.69516C21.5954 5.76074 21.2926 5.9226 21.0549 6.16028C20.8172 6.39796 20.6554 6.70078 20.5898 7.03046C20.5242 7.36013 20.5579 7.70185 20.6865 8.01239C20.8151 8.32294 21.033 8.58837 21.3125 8.77511C21.5919 8.96185 21.9205 9.06153 22.2567 9.06153C22.7074 9.06153 23.1397 8.88247 23.4584 8.56375C23.7771 8.24503 23.9562 7.81276 23.9562 7.36202Z" fill="#4471AE"/>
</svg>
