<svg width="487" height="159" viewBox="0 0 487 159" fill="none" xmlns="http://www.w3.org/2000/svg">
<path fill-rule="evenodd" clip-rule="evenodd" d="M148.593 29.6535C151.838 17.546 140.758 6.46692 128.651 9.71112L18.8497 39.1323C5.57625 42.6889 2.40536 60.0744 13.5686 68.0879L52.4547 96.0025L57.8325 90.6247L78.6459 69.8112L51.5141 65.2876C48.442 64.7754 46.742 61.4368 48.1348 58.6511C48.9802 56.9603 50.7686 55.9534 52.6527 56.1075L89.349 59.1082L105.738 42.7196C107.409 41.0478 109.455 39.8873 111.425 39.4933C113.396 39.0992 115.129 39.504 116.243 40.6185C117.358 41.733 117.762 43.4659 117.368 45.4361C116.974 47.4062 115.814 49.4522 114.142 51.124L97.7534 67.5126L100.755 104.21C100.909 106.094 99.9022 107.882 98.2114 108.728C95.4257 110.121 92.0871 108.421 91.5748 105.349L87.0504 78.2156L66.2369 99.0291L62.1397 103.126L61.0961 104.17L90.2166 144.736C98.2301 155.899 115.616 152.728 119.172 139.455L148.593 29.6535Z" fill="#05469E"/>
<path d="M183.603 123.305H164.629L193.541 39.5538H216.359L245.23 123.305H226.256L205.277 58.6922H204.623L183.603 123.305ZM182.417 90.385H227.237V104.207H182.417V90.385ZM255.321 123.305V60.4915H272.742V123.305H255.321ZM264.072 52.3945C261.482 52.3945 259.261 51.5357 257.407 49.8182C255.58 48.0734 254.667 45.9878 254.667 43.5614C254.667 41.1623 255.58 39.104 257.407 37.3864C259.261 35.6416 261.482 34.7692 264.072 34.7692C266.662 34.7692 268.871 35.6416 270.697 37.3864C272.551 39.104 273.478 41.1623 273.478 43.5614C273.478 45.9878 272.551 48.0734 270.697 49.8182C268.871 51.5357 266.662 52.3945 264.072 52.3945ZM286.697 123.305V60.4915H303.586V71.4511H304.24C305.385 67.5525 307.307 64.6082 310.006 62.618C312.705 60.6005 315.813 59.5918 319.33 59.5918C320.203 59.5918 321.143 59.6464 322.152 59.7554C323.161 59.8645 324.047 60.0144 324.81 60.2052V75.6631C323.992 75.4178 322.861 75.1997 321.416 75.0088C319.971 74.818 318.649 74.7226 317.449 74.7226C314.886 74.7226 312.596 75.2815 310.579 76.3992C308.589 77.4897 307.008 79.0164 305.835 80.9794C304.69 82.9423 304.118 85.2051 304.118 87.7677V123.305H286.697ZM389.678 66.6256C389.106 64.6354 388.301 62.877 387.265 61.3503C386.229 59.7963 384.962 58.4877 383.462 57.4245C381.99 56.3339 380.3 55.5024 378.391 54.9299C376.51 54.3574 374.425 54.0712 372.135 54.0712C367.854 54.0712 364.092 55.1344 360.848 57.2609C357.631 59.3874 355.123 62.4817 353.323 66.5438C351.524 70.5787 350.624 75.5132 350.624 81.3474C350.624 87.1816 351.51 92.1434 353.282 96.2328C355.055 100.322 357.563 103.444 360.807 105.597C364.051 107.724 367.882 108.787 372.298 108.787C376.306 108.787 379.727 108.078 382.562 106.661C385.425 105.216 387.606 103.185 389.106 100.568C390.632 97.9503 391.396 94.856 391.396 91.2846L394.994 91.8162H373.402V78.4848H408.448V89.0355C408.448 96.3964 406.894 102.721 403.786 108.01C400.679 113.272 396.398 117.334 390.946 120.197C385.493 123.032 379.25 124.45 372.216 124.45C364.365 124.45 357.467 122.718 351.524 119.256C345.581 115.766 340.946 110.818 337.62 104.412C334.321 97.9776 332.672 90.3441 332.672 81.511C332.672 74.7226 333.653 68.6703 335.616 63.3541C337.606 58.0106 340.387 53.485 343.959 49.7773C347.53 46.0696 351.688 43.2479 356.431 41.3122C361.175 39.3766 366.314 38.4088 371.848 38.4088C376.592 38.4088 381.009 39.104 385.098 40.4944C389.187 41.8575 392.813 43.7931 395.976 46.3013C399.165 48.8095 401.769 51.7947 403.786 55.2571C405.804 58.6922 407.099 62.4817 407.671 66.6256H389.678ZM449.802 124.531C443.45 124.531 437.957 123.182 433.322 120.483C428.715 117.757 425.157 113.967 422.649 109.114C420.141 104.234 418.887 98.5774 418.887 92.1434C418.887 85.6549 420.141 79.9843 422.649 75.1315C425.157 70.2515 428.715 66.462 433.322 63.763C437.957 61.0368 443.45 59.6736 449.802 59.6736C456.155 59.6736 461.634 61.0368 466.242 63.763C470.876 66.462 474.448 70.2515 476.956 75.1315C479.464 79.9843 480.718 85.6549 480.718 92.1434C480.718 98.5774 479.464 104.234 476.956 109.114C474.448 113.967 470.876 117.757 466.242 120.483C461.634 123.182 456.155 124.531 449.802 124.531ZM449.884 111.036C452.774 111.036 455.187 110.219 457.122 108.583C459.058 106.92 460.517 104.657 461.498 101.794C462.507 98.9318 463.011 95.6739 463.011 92.0207C463.011 88.3675 462.507 85.1096 461.498 82.2471C460.517 79.3845 459.058 77.1217 457.122 75.4587C455.187 73.7957 452.774 72.9641 449.884 72.9641C446.967 72.9641 444.513 73.7957 442.523 75.4587C440.56 77.1217 439.074 79.3845 438.066 82.2471C437.084 85.1096 436.594 88.3675 436.594 92.0207C436.594 95.6739 437.084 98.9318 438.066 101.794C439.074 104.657 440.56 106.92 442.523 108.583C444.513 110.219 446.967 111.036 449.884 111.036Z" fill="#05469E"/>
</svg>
