<svg width="178" height="57" viewBox="0 0 178 57" fill="none" xmlns="http://www.w3.org/2000/svg">
<path d="M1.10651 39.7579H32.9606V43.1109H1.10651V39.7579ZM33.9162 24.0656C33.5642 22.7243 32.1726 21.9196 30.8314 22.2884L21.929 24.6691L10.361 13.889L7.12526 14.744L14.0661 26.7648L5.73374 28.9946L2.43097 26.4127L0 27.0665L4.34222 34.5942L32.1223 27.1671C33.4803 26.7815 34.2683 25.4068 33.9162 24.0656Z" fill="#05469E"/>
<path d="M47.7803 39.5H42.6423L50.4711 16.8218H56.6501L64.4678 39.5H59.3298L53.6492 22.0041H53.472L47.7803 39.5ZM47.4592 30.586H59.5956V34.3288H47.4592V30.586ZM67.2002 39.5V22.4914H71.9174V39.5H67.2002ZM69.5699 20.2989C68.8685 20.2989 68.2669 20.0663 67.7649 19.6012C67.2703 19.1288 67.023 18.564 67.023 17.907C67.023 17.2574 67.2703 16.7 67.7649 16.2349C68.2669 15.7625 68.8685 15.5263 69.5699 15.5263C70.2712 15.5263 70.8691 15.7625 71.3637 16.2349C71.8657 16.7 72.1167 17.2574 72.1167 17.907C72.1167 18.564 71.8657 19.1288 71.3637 19.6012C70.8691 20.0663 70.2712 20.2989 69.5699 20.2989ZM75.6962 39.5V22.4914H80.2695V25.459H80.4466C80.7567 24.4034 81.2771 23.6061 82.008 23.0672C82.7388 22.5209 83.5804 22.2478 84.5327 22.2478C84.7689 22.2478 85.0236 22.2625 85.2967 22.2921C85.5699 22.3216 85.8098 22.3622 86.0165 22.4139V26.5996C85.795 26.5331 85.4887 26.4741 85.0974 26.4224C84.7062 26.3707 84.3481 26.3449 84.0233 26.3449C83.3294 26.3449 82.7093 26.4962 82.163 26.7989C81.6241 27.0942 81.1959 27.5076 80.8785 28.0391C80.5684 28.5706 80.4134 29.1834 80.4134 29.8773V39.5H75.6962ZM103.582 24.1524C103.427 23.6135 103.209 23.1373 102.928 22.7239C102.648 22.3031 102.304 21.9488 101.898 21.6609C101.5 21.3656 101.042 21.1404 100.525 20.9854C100.016 20.8304 99.4512 20.7529 98.8311 20.7529C97.6721 20.7529 96.6534 21.0408 95.7749 21.6166C94.9038 22.1924 94.2246 23.0303 93.7374 24.1302C93.2502 25.2228 93.0065 26.559 93.0065 28.1388C93.0065 29.7186 93.2465 31.0621 93.7263 32.1695C94.2062 33.2768 94.8853 34.1221 95.7638 34.7053C96.6423 35.2811 97.6795 35.569 98.8754 35.569C99.9606 35.569 100.887 35.377 101.655 34.9932C102.43 34.6019 103.021 34.0519 103.427 33.3432C103.84 32.6345 104.047 31.7967 104.047 30.8296L105.021 30.9735H99.1744V27.3636H108.664V30.2206C108.664 32.2138 108.243 33.9264 107.402 35.3586C106.56 36.7833 105.401 37.8833 103.925 38.6584C102.448 39.4262 100.758 39.8101 98.8533 39.8101C96.7272 39.8101 94.8595 39.3413 93.2502 38.4037C91.6408 37.4588 90.3859 36.1189 89.4852 34.3841C88.592 32.6419 88.1454 30.5749 88.1454 28.1831C88.1454 26.3449 88.4111 24.706 88.9426 23.2665C89.4815 21.8196 90.2345 20.5941 91.2016 19.5902C92.1687 18.5862 93.2945 17.8221 94.579 17.298C95.8635 16.7738 97.255 16.5118 98.7536 16.5118C100.038 16.5118 101.234 16.7 102.341 17.0765C103.449 17.4456 104.431 17.9698 105.287 18.6489C106.151 19.3281 106.856 20.1364 107.402 21.074C107.948 22.0041 108.299 23.0303 108.454 24.1524H103.582ZM119.862 39.8322C118.142 39.8322 116.655 39.4668 115.4 38.7359C114.152 37.9977 113.189 36.9716 112.509 35.6576C111.83 34.3361 111.491 32.8043 111.491 31.0621C111.491 29.3052 111.83 27.7697 112.509 26.4556C113.189 25.1342 114.152 24.1081 115.4 23.3772C116.655 22.639 118.142 22.2699 119.862 22.2699C121.582 22.2699 123.066 22.639 124.314 23.3772C125.569 24.1081 126.536 25.1342 127.215 26.4556C127.894 27.7697 128.234 29.3052 128.234 31.0621C128.234 32.8043 127.894 34.3361 127.215 35.6576C126.536 36.9716 125.569 37.9977 124.314 38.7359C123.066 39.4668 121.582 39.8322 119.862 39.8322ZM119.884 36.178C120.667 36.178 121.32 35.9565 121.844 35.5136C122.368 35.0633 122.763 34.4506 123.029 33.6754C123.302 32.9003 123.439 32.0181 123.439 31.0289C123.439 30.0397 123.302 29.1575 123.029 28.3824C122.763 27.6073 122.368 26.9945 121.844 26.5442C121.32 26.0939 120.667 25.8687 119.884 25.8687C119.094 25.8687 118.43 26.0939 117.891 26.5442C117.36 26.9945 116.957 27.6073 116.684 28.3824C116.418 29.1575 116.285 30.0397 116.285 31.0289C116.285 32.0181 116.418 32.9003 116.684 33.6754C116.957 34.4506 117.36 35.0633 117.891 35.5136C118.43 35.9565 119.094 36.178 119.884 36.178Z" fill="#05469E"/>
</svg>
