<svg width="33" height="27" viewBox="0 0 33 27" fill="none" xmlns="http://www.w3.org/2000/svg">
<path d="M29.4588 7.18436L16.3742 15.3622L3.28969 7.18436V3.91323L16.3742 12.0911L29.4588 3.91323M29.4588 0.64209H3.28969C1.47421 0.64209 0.0185547 2.09775 0.0185547 3.91323V23.54C0.0185547 24.4076 0.363191 25.2396 0.976648 25.8531C1.59011 26.4665 2.42213 26.8112 3.28969 26.8112H29.4588C30.3263 26.8112 31.1584 26.4665 31.7718 25.8531C32.3853 25.2396 32.7299 24.4076 32.7299 23.54V3.91323C32.7299 3.04567 32.3853 2.21364 31.7718 1.60018C31.1584 0.986726 30.3263 0.64209 29.4588 0.64209Z" fill="#4471AE"/>
</svg>
