<svg width="113" height="109" viewBox="0 0 113 109" fill="none" xmlns="http://www.w3.org/2000/svg">
<path d="M17.922 0.726562C15.0854 0.726562 12.8161 1.86121 11.1142 4.1305L3.73896 13.2077C2.03699 15.477 0.902344 17.7463 0.902344 20.5829V91.4983C0.902344 97.7388 6.00825 102.845 12.2488 102.845H59.3366C58.202 99.4408 57.6346 95.4695 57.6346 91.4983C57.6346 72.7766 72.9524 57.4589 91.674 57.4589C95.6453 57.4589 99.6165 58.0262 103.02 59.1608V20.5829C103.02 17.7463 101.886 15.477 100.184 13.2077L92.2413 3.56318C91.1067 1.86121 88.8374 0.726562 86.0008 0.726562H17.922ZM17.3547 6.39979H85.4335L90.5394 12.073H12.8161L17.3547 6.39979ZM17.922 68.8053H51.9614V85.825H17.922V68.8053ZM104.722 73.3439L84.2988 93.7675L75.2217 84.6904L68.9811 91.4983L84.8661 108.518L112.098 81.2864L104.722 73.3439Z" fill="#4471AE"/>
</svg>
