<svg width="136" height="110" viewBox="0 0 136 110" fill="none" xmlns="http://www.w3.org/2000/svg">
<path d="M117.089 54.0963C117.089 53.8551 117.111 53.614 117.111 53.3509C117.111 42.6956 108.473 34.0573 97.8176 34.0573H64.4923V53.3509C64.4923 58.1962 60.5678 62.1207 55.7225 62.1207C50.8772 62.1207 46.9527 58.1962 46.9527 53.3509V27.0415H47.0404C47.9174 19.1486 54.6044 13.0098 62.7383 13.0098H87.2938C87.9077 13.0098 88.5216 13.0536 89.1135 13.1194L97.9053 4.32766C102.707 -0.473805 110.468 -0.473805 115.269 4.32766L132.393 21.4507C137.194 26.2522 137.194 34.0135 132.393 38.8149L117.111 54.0963H117.089ZM39.9369 27.0415V53.3509C39.9369 62.0768 46.9965 69.1365 55.7225 69.1365C64.4485 69.1365 71.5081 62.0768 71.5081 53.3509V41.0731H97.8176C104.592 41.0731 110.095 46.5762 110.095 53.3509C110.095 59.3143 105.842 64.2912 100.185 65.4094C101.983 67.2949 103.079 69.8381 103.079 72.6444C103.079 78.4544 98.3657 83.1682 92.5557 83.1682H91.9637C92.3584 84.2644 92.5557 85.4484 92.5557 86.6761C92.5557 92.4861 87.8419 97.1999 82.0319 97.1999H46.9527C46.7554 97.1999 46.5581 97.1999 46.3607 97.178L38.0952 105.444C33.2937 110.245 25.5324 110.245 20.731 105.444L3.60794 88.3424C-1.19353 83.5409 -1.19353 75.7796 3.60794 70.9782L18.8893 55.6968V48.089C18.8893 36.469 28.3169 27.0415 39.9369 27.0415Z" fill="#4471AE"/>
</svg>
