<svg width="109" height="110" viewBox="0 0 109 110" fill="none" xmlns="http://www.w3.org/2000/svg">
<path d="M10.9453 109.613C7.95092 109.613 5.38845 108.548 3.25791 106.417C1.12373 104.283 0.0566406 101.719 0.0566406 98.7245V33.3925C0.0566406 30.3981 1.12373 27.8357 3.25791 25.7051C5.38845 23.571 7.95092 22.5039 10.9453 22.5039H28.0949L38.1669 11.6152H70.8329V27.9482C73.8273 27.9482 76.3916 29.0153 78.5257 31.1495C80.6563 33.28 81.7216 35.8425 81.7216 38.8369H108.943V98.7245C108.943 101.719 107.878 104.283 105.747 106.417C103.613 108.548 101.049 109.613 98.0545 109.613H10.9453ZM54.4999 90.558C61.3053 90.558 67.0908 88.177 71.8564 83.415C76.6184 78.6494 78.9994 72.8639 78.9994 66.0585C78.9994 59.2531 76.6184 53.4676 71.8564 48.702C67.0908 43.94 61.3053 41.559 54.4999 41.559C47.6945 41.559 41.909 43.94 37.1434 48.702C32.3814 53.4676 30.0004 59.2531 30.0004 66.0585C30.0004 72.8639 32.3814 78.6494 37.1434 83.415C41.909 88.177 47.6945 90.558 54.4999 90.558ZM54.4999 79.6693C50.6889 79.6693 47.4677 78.3536 44.8362 75.7222C42.2048 73.0908 40.8891 69.8695 40.8891 66.0585C40.8891 62.2475 42.2048 59.0262 44.8362 56.3948C47.4677 53.7634 50.6889 52.4477 54.4999 52.4477C58.3109 52.4477 61.5322 53.7634 64.1636 56.3948C66.795 59.0262 68.1107 62.2475 68.1107 66.0585C68.1107 69.8695 66.795 73.0908 64.1636 75.7222C61.5322 78.3536 58.3109 79.6693 54.4999 79.6693ZM101.593 33.3925C101.593 26.3149 99.1434 20.3261 94.2435 15.4262C89.3436 10.5264 83.3549 8.0764 76.2772 8.0764V0.726562C85.3511 0.726562 93.0639 3.90242 99.4156 10.2541C105.767 16.6059 108.943 24.3186 108.943 33.3925H101.593ZM87.1659 33.3925C87.1659 30.3981 86.1006 27.8357 83.9701 25.7051C81.8359 23.571 79.2716 22.5039 76.2772 22.5039V15.154C81.2679 15.154 85.509 16.9234 89.0006 20.4623C92.4959 24.0011 94.3343 28.3112 94.5157 33.3925H87.1659Z" fill="#4471AE"/>
</svg>
