<svg width="35" height="29" viewBox="0 0 35 29" fill="none" xmlns="http://www.w3.org/2000/svg">
<path d="M34.9802 3.87485C33.6947 4.45917 32.3091 4.84315 30.8733 5.02679C32.3424 4.14197 33.4777 2.7396 34.0119 1.05343C32.6263 1.88817 31.0903 2.47249 29.4709 2.80638C28.152 1.37063 26.2989 0.535889 24.1954 0.535889C20.2721 0.535889 17.0667 3.74129 17.0667 7.69796C17.0667 8.26558 17.1335 8.81651 17.2503 9.33405C11.307 9.03354 6.01473 6.17873 2.49213 1.85478C1.87442 2.90655 1.52383 4.14197 1.52383 5.44416C1.52383 7.93169 2.77594 10.1354 4.71254 11.3875C3.52721 11.3875 2.42535 11.0536 1.45705 10.5528V10.6029C1.45705 14.0754 3.92788 16.9803 7.20006 17.6314C6.14951 17.9189 5.04659 17.9589 3.97797 17.7482C4.43141 19.1714 5.31946 20.4167 6.51727 21.3091C7.71509 22.2015 9.16245 22.6961 10.6559 22.7233C8.12434 24.7274 4.98633 25.8107 1.75756 25.7951C1.18993 25.7951 0.622311 25.7617 0.0546875 25.695C3.2267 27.7317 6.99973 28.9171 11.0399 28.9171C24.1954 28.9171 31.4242 17.9987 31.4242 8.5327C31.4242 8.2155 31.4242 7.91499 31.4075 7.59779C32.8099 6.5961 34.0119 5.3273 34.9802 3.87485Z" fill="#4471AE"/>
</svg>
